<?xml version="1.0" encoding="utf-8"?>
<!DOCTYPE svg PUBLIC "-//W3C//DTD SVG 1.1//EN" "http://www.w3.org/Graphics/SVG/1.1/DTD/svg11.dtd">
<svg version="1.1" xmlns="http://www.w3.org/2000/svg" xmlns:xlink="http://www.w3.org/1999/xlink" x="0px" y="0px" viewBox="0 0 1000 1000" enable-background="new 0 0 1000 1000" xml:space="preserve" fill="#ffffff">
<g><g transform="translate(0.000000,511.000000) scale(0.100000,-0.100000)"><path d="M282.2,4986.5c-80-35.1-161.9-134.6-175.6-212.6c-5.8-35.1-7.8-2157.7-5.8-4719.2l5.8-4656.7l41-52.7c21.5-29.3,64.4-72.2,93.6-93.7l52.7-41h4709.4h4709.4l52.7,41c29.3,21.5,72.2,64.4,93.7,93.7l41,52.7V107.4v4709.4l-41,52.7c-21.5,29.3-64.4,72.2-93.7,93.6l-52.7,41l-4686,3.9C1160.1,5011.9,330.9,5008,282.2,4986.5z M9422,4645.1c37.1-19.5,87.8-70.2,111.2-111.2l44.9-76.1V101.5c0-4327,0-4356.3-39-4432.4c-25.4-50.7-66.3-91.7-117.1-117.1c-76.1-39-105.4-39-4432.4-39H633.3l-76.1,44.9c-41,23.4-91.7,74.1-111.2,111.2C410.9-4266.5,409-4112.4,409,93.7V4452l41,74.1c23.4,39,74.1,91.7,113.1,113.1l70.2,42.9h4360.2C9203.5,4682.2,9357.7,4680.2,9422,4645.1z"/><path d="M4603.4,1453.5V507.3h-936.4h-936.4V97.6v-409.7h936.4h936.4v-946.2v-946.2h409.7h409.7v946.2v946.2h946.2h946.2V97.6v409.7h-946.2h-946.2v946.2v946.2h-409.7h-409.7V1453.5z"/></g></g>
</svg>